<?xml version="1.0" encoding="UTF-8" standalone="no" ?>
<!DOCTYPE svg PUBLIC "-//W3C//DTD SVG 1.1//EN" "http://www.w3.org/Graphics/SVG/1.1/DTD/svg11.dtd">
<svg xmlns="http://www.w3.org/2000/svg" xmlns:xlink="http://www.w3.org/1999/xlink" version="1.1" width="640" height="480" viewBox="0 0 640 480" xml:space="preserve">
<desc>Created with Fabric.js 3.6.6</desc>
<defs>
</defs>
<g transform="matrix(1 0 0 1 218.68 29.97)"  >
<linearGradient id="SVGID_6" gradientUnits="objectBoundingBox" gradientTransform="matrix(1 0 0 1 218.56 -16.61)"  x1="0" y1="0.5" x2="1" y2="0.5">
<stop offset="0%" style="stop-color:rgb(173,204,255);stop-opacity: 1"/>
<stop offset="100%" style="stop-color:rgb(246,142,227);stop-opacity: 1"/>
</linearGradient>
<path style="stroke: none; stroke-width: 1; stroke-dasharray: none; stroke-linecap: butt; stroke-dashoffset: 0; stroke-linejoin: miter; stroke-miterlimit: 4; fill: url(#SVGID_6); fill-rule: nonzero; opacity: 1;"  transform=" translate(-218.56, 16.61)" d="M 14.34 0 L 0.38 0 L 8.51 -42.24 L 22.59 -42.24 L 14.34 0 Z M 70.08 1.28 L 70.08 1.28 L 70.08 1.28 Q 62.34 1.28 62.34 -4.74 L 62.34 -4.74 L 62.34 -4.74 Q 62.34 -7.36 63.46 -12.45 L 63.46 -12.45 L 63.46 -12.45 Q 64.58 -17.54 64.96 -19.58 L 64.96 -19.58 L 64.96 -19.58 Q 65.86 -24.26 65.86 -25.73 L 65.86 -25.73 L 65.86 -25.73 Q 65.86 -28.99 63.42 -28.99 L 63.42 -28.99 L 63.42 -28.99 Q 61.82 -28.99 60.29 -26.78 L 60.29 -26.78 L 60.29 -26.78 Q 58.75 -24.58 58.05 -20.16 L 58.05 -20.16 L 54.08 0 L 41.6 1.28 L 45.06 -16.13 L 45.06 -16.13 Q 45.63 -19.01 46.14 -22.27 L 46.14 -22.27 L 46.14 -22.27 Q 46.66 -25.54 46.66 -26.05 L 46.66 -26.05 L 46.66 -26.05 Q 46.66 -28.99 44.48 -28.99 L 44.48 -28.99 L 44.48 -28.99 Q 43.01 -28.99 41.41 -26.82 L 41.41 -26.82 L 41.41 -26.82 Q 39.81 -24.64 38.91 -20.16 L 38.91 -20.16 L 35.01 0 L 22.4 1.28 L 29.12 -32.64 L 39.55 -33.92 L 38.46 -27.46 L 38.46 -27.46 Q 40.13 -30.91 43.2 -32.42 L 43.2 -32.42 L 43.2 -32.42 Q 46.27 -33.92 51.07 -33.92 L 51.07 -33.92 L 51.07 -33.92 Q 53.82 -33.92 55.62 -32.58 L 55.62 -32.58 L 55.62 -32.58 Q 57.41 -31.23 57.98 -29.06 L 57.98 -29.06 L 57.98 -29.06 Q 59.07 -31.3 61.86 -32.61 L 61.86 -32.61 L 61.86 -32.61 Q 64.64 -33.92 68.06 -33.92 L 68.06 -33.92 L 68.06 -33.92 Q 71.49 -33.92 73.18 -33.18 L 73.18 -33.18 L 73.18 -33.18 Q 74.88 -32.45 75.9 -31.23 L 75.9 -31.23 L 75.9 -31.23 Q 77.63 -28.99 77.63 -24.9 L 77.63 -24.9 L 77.63 -24.9 Q 77.63 -20.86 75.9 -12.48 L 75.9 -12.48 L 75.9 -12.48 Q 75.01 -8.38 75.01 -6.88 L 75.01 -6.88 L 75.01 -6.88 Q 75.01 -5.38 75.87 -4.48 L 75.87 -4.48 L 75.87 -4.48 Q 76.74 -3.58 78.02 -3.46 L 78.02 -3.46 L 78.02 -3.46 Q 77.38 -1.28 75.17 0 L 75.17 0 L 75.17 0 Q 72.96 1.28 70.08 1.28 Z M 85.73 -1.92 L 85.73 -1.92 L 85.73 -1.92 Q 84.22 -3.58 83.55 -6.21 L 83.55 -6.21 L 83.55 -6.21 Q 82.88 -8.83 82.88 -13.12 L 82.88 -13.12 L 82.88 -13.12 Q 82.88 -17.41 84.35 -21.31 L 84.35 -21.31 L 84.35 -21.31 Q 85.82 -25.22 88.51 -28.03 L 88.51 -28.03 L 88.51 -28.03 Q 94.02 -33.92 103.1 -33.92 L 103.1 -33.92 L 103.1 -33.92 Q 106.37 -33.92 108.74 -32.83 L 108.74 -32.83 L 119.68 -33.92 L 114.94 -8.96 L 114.94 -8.96 Q 114.75 -8.19 114.75 -6.78 L 114.75 -6.78 L 114.75 -6.78 Q 114.75 -5.38 115.62 -4.48 L 115.62 -4.48 L 115.62 -4.48 Q 116.48 -3.58 117.76 -3.46 L 117.76 -3.46 L 117.76 -3.46 Q 117.12 -1.28 114.78 0 L 114.78 0 L 114.78 0 Q 112.45 1.28 109.82 1.28 L 109.82 1.28 L 109.82 1.28 Q 107.2 1.28 105.44 0.29 L 105.44 0.29 L 105.44 0.29 Q 103.68 -0.7 103.17 -2.37 L 103.17 -2.37 L 103.17 -2.37 Q 102.14 -0.77 99.97 0.26 L 99.97 0.26 L 99.97 0.26 Q 97.79 1.28 94.88 1.28 L 94.88 1.28 L 94.88 1.28 Q 91.97 1.28 89.6 0.51 L 89.6 0.51 L 89.6 0.51 Q 87.23 -0.26 85.73 -1.92 Z M 99.23 -27.9 L 99.23 -27.9 L 99.23 -27.9 Q 98.5 -26.75 97.86 -24.8 L 97.86 -24.8 L 97.86 -24.8 Q 97.22 -22.85 96.16 -17.63 L 96.16 -17.63 L 96.16 -17.63 Q 95.1 -12.42 95.1 -8.7 L 95.1 -8.7 L 95.1 -8.7 Q 95.1 -4.99 95.68 -3.9 L 95.68 -3.9 L 95.68 -3.9 Q 96.26 -2.82 97.28 -2.82 L 97.28 -2.82 L 97.28 -2.82 Q 99.33 -2.82 100.83 -4.77 L 100.83 -4.77 L 100.83 -4.77 Q 102.34 -6.72 102.91 -10.18 L 102.91 -10.18 L 106.3 -28.93 L 106.3 -28.93 Q 104.96 -30.08 103.39 -30.08 L 103.39 -30.08 L 103.39 -30.08 Q 101.82 -30.08 100.9 -29.57 L 100.9 -29.57 L 100.9 -29.57 Q 99.97 -29.06 99.23 -27.9 Z M 127.42 -26.75 L 127.42 -26.75 L 127.42 -26.75 Q 129.6 -29.82 132.9 -31.87 L 132.9 -31.87 L 132.9 -31.87 Q 136.19 -33.92 140.22 -33.92 L 140.22 -33.92 L 140.22 -33.92 Q 144.26 -33.92 146.18 -32.64 L 146.18 -32.64 L 158.72 -33.92 L 154.37 -9.34 L 154.37 -9.34 Q 152.13 3.2 147.39 8.13 L 147.39 8.13 L 147.39 8.13 Q 142.85 12.8 134.02 12.8 L 134.02 12.8 L 134.02 12.8 Q 127.3 12.8 123.46 10.69 L 123.46 10.69 L 123.46 10.69 Q 119.62 8.58 119.62 5.06 L 119.62 5.06 L 119.62 5.06 Q 119.62 2.43 121.6 0.93 L 121.6 0.93 L 121.6 0.93 Q 123.58 -0.58 126.66 -0.58 L 126.66 -0.58 L 126.66 -0.58 Q 129.34 -0.58 131.39 0.64 L 131.39 0.64 L 131.39 0.64 Q 132.61 1.28 133.18 2.18 L 133.18 2.18 L 133.18 2.18 Q 131.71 3.46 131.71 5.57 L 131.71 5.57 L 131.71 5.57 Q 131.71 8.32 134.27 8.32 L 134.27 8.32 L 134.27 8.32 Q 138.56 8.32 140.99 -1.79 L 140.99 -1.79 L 140.99 -1.79 Q 141.7 -4.54 142.27 -7.3 L 142.27 -7.3 L 142.27 -7.3 Q 139.39 -3.78 132.86 -3.78 L 132.86 -3.78 L 132.86 -3.78 Q 128.32 -3.78 125.7 -5.95 L 125.7 -5.95 L 125.7 -5.95 Q 123.07 -8.13 123.07 -13.25 L 123.07 -13.25 L 123.07 -13.25 Q 123.07 -16.45 124.16 -20.06 L 124.16 -20.06 L 124.16 -20.06 Q 125.25 -23.68 127.42 -26.75 Z M 135.74 -13.06 L 135.74 -13.06 L 135.74 -13.06 Q 135.74 -8.7 137.98 -8.7 L 137.98 -8.7 L 137.98 -8.7 Q 139.52 -8.7 140.99 -10.37 L 140.99 -10.37 L 140.99 -10.37 Q 142.14 -11.71 142.59 -13.7 L 142.59 -13.7 L 145.86 -30.14 L 145.86 -30.14 Q 145.54 -30.21 145.22 -30.34 L 145.22 -30.34 L 145.22 -30.34 Q 144.58 -30.59 143.74 -30.59 L 143.74 -30.59 L 143.74 -30.59 Q 139.84 -30.59 137.54 -24.19 L 137.54 -24.19 L 137.54 -24.19 Q 135.74 -19.2 135.74 -13.06 Z M 187.14 -10.82 L 187.14 -10.82 L 187.14 -10.82 Q 188.74 -9.73 188.74 -7.33 L 188.74 -7.33 L 188.74 -7.33 Q 188.74 -4.93 187.52 -3.39 L 187.52 -3.39 L 187.52 -3.39 Q 186.3 -1.86 184.32 -0.83 L 184.32 -0.83 L 184.32 -0.83 Q 180.22 1.28 175.81 1.28 L 175.81 1.28 L 175.81 1.28 Q 171.39 1.28 168.8 0.32 L 168.8 0.32 L 168.8 0.32 Q 166.21 -0.64 164.48 -2.43 L 164.48 -2.43 L 164.48 -2.43 Q 161.09 -5.82 161.09 -12.03 L 161.09 -12.03 L 161.09 -12.03 Q 161.09 -21.7 166.34 -27.58 L 166.34 -27.58 L 166.34 -27.58 Q 171.97 -33.92 181.76 -33.92 L 181.76 -33.92 L 181.76 -33.92 Q 187.84 -33.92 190.85 -31.36 L 190.85 -31.36 L 190.85 -31.36 Q 193.09 -29.44 193.09 -26.3 L 193.09 -26.3 L 193.09 -26.3 Q 193.09 -15.04 173.63 -15.04 L 173.63 -15.04 L 173.63 -15.04 Q 173.38 -13.38 173.38 -11.97 L 173.38 -11.97 L 173.38 -11.97 Q 173.38 -9.02 174.69 -7.9 L 174.69 -7.9 L 174.69 -7.9 Q 176 -6.78 178.43 -6.78 L 178.43 -6.78 L 178.43 -6.78 Q 180.86 -6.78 183.46 -7.9 L 183.46 -7.9 L 183.46 -7.9 Q 186.05 -9.02 187.14 -10.82 Z M 174.08 -17.79 L 174.08 -17.79 L 174.08 -17.79 Q 178.62 -17.79 181.25 -20.61 L 181.25 -20.61 L 181.25 -20.61 Q 183.87 -23.3 183.87 -27.58 L 183.87 -27.58 L 183.87 -27.58 Q 183.87 -29.06 183.33 -29.86 L 183.33 -29.86 L 183.33 -29.86 Q 182.78 -30.66 181.7 -30.66 L 181.7 -30.66 L 181.7 -30.66 Q 180.61 -30.66 179.68 -30.24 L 179.68 -30.24 L 179.68 -30.24 Q 178.75 -29.82 177.79 -28.42 L 177.79 -28.42 L 177.79 -28.42 Q 175.42 -25.22 174.08 -17.79 Z M 234.37 -20.61 L 247.3 -21.76 L 247.3 -21.76 Q 242.69 -11.65 242.69 0.06 L 242.69 0.06 L 242.69 0.06 Q 240.96 1.28 238.43 1.28 L 238.43 1.28 L 238.43 1.28 Q 235.9 1.28 234.3 0.1 L 234.3 0.1 L 234.3 0.1 Q 232.7 -1.09 232.38 -2.3 L 232.38 -2.3 L 232.38 -2.3 Q 230.78 -0.64 228.19 0.32 L 228.19 0.32 L 228.19 0.32 Q 225.6 1.28 222.85 1.28 L 222.85 1.28 L 222.85 1.28 Q 220.1 1.28 217.7 0.38 L 217.7 0.38 L 217.7 0.38 Q 215.3 -0.51 213.44 -2.5 L 213.44 -2.5 L 213.44 -2.5 Q 209.34 -6.85 209.34 -15.1 L 209.34 -15.1 L 209.34 -15.1 Q 209.34 -27.9 216.19 -35.58 L 216.19 -35.58 L 216.19 -35.58 Q 223.23 -43.52 235.71 -43.52 L 235.71 -43.52 L 235.71 -43.52 Q 244.35 -43.52 247.42 -39.04 L 247.42 -39.04 L 247.42 -39.04 Q 248.38 -37.63 248.38 -35.94 L 248.38 -35.94 L 248.38 -35.94 Q 248.38 -34.24 247.65 -32.8 L 247.65 -32.8 L 247.65 -32.8 Q 246.91 -31.36 245.76 -30.21 L 245.76 -30.21 L 245.76 -30.21 Q 243.01 -27.65 239.62 -27.65 L 239.62 -27.65 L 239.62 -27.65 Q 238.27 -27.65 236.99 -28.1 L 236.99 -28.1 L 236.99 -28.1 Q 237.25 -30.02 237.25 -32.26 L 237.25 -32.26 L 237.25 -32.26 Q 237.25 -34.5 237.09 -35.52 L 237.09 -35.52 L 237.09 -35.52 Q 236.93 -36.54 236.54 -37.38 L 236.54 -37.38 L 236.54 -37.38 Q 235.71 -39.1 233.89 -39.1 L 233.89 -39.1 L 233.89 -39.1 Q 232.06 -39.1 230.05 -37.15 L 230.05 -37.15 L 230.05 -37.15 Q 228.03 -35.2 226.43 -32 L 226.43 -32 L 226.43 -32 Q 222.91 -24.83 222.91 -16.19 L 222.91 -16.19 L 222.91 -16.19 Q 222.91 -12.22 224.45 -9.41 L 224.45 -9.41 L 224.45 -9.41 Q 226.11 -6.34 229.06 -6.34 L 229.06 -6.34 L 229.06 -6.34 Q 230.08 -6.34 231.01 -6.85 L 231.01 -6.85 L 231.01 -6.85 Q 231.94 -7.36 232.32 -7.74 L 232.32 -7.74 L 234.37 -20.61 Z M 253.22 -1.92 L 253.22 -1.92 L 253.22 -1.92 Q 251.71 -3.58 251.04 -6.21 L 251.04 -6.21 L 251.04 -6.21 Q 250.37 -8.83 250.37 -13.12 L 250.37 -13.12 L 250.37 -13.12 Q 250.37 -17.41 251.84 -21.31 L 251.84 -21.31 L 251.84 -21.31 Q 253.31 -25.22 256 -28.03 L 256 -28.03 L 256 -28.03 Q 261.5 -33.92 270.59 -33.92 L 270.59 -33.92 L 270.59 -33.92 Q 273.86 -33.92 276.22 -32.83 L 276.22 -32.83 L 287.17 -33.92 L 282.43 -8.96 L 282.43 -8.96 Q 282.24 -8.19 282.24 -6.78 L 282.24 -6.78 L 282.24 -6.78 Q 282.24 -5.38 283.1 -4.48 L 283.1 -4.48 L 283.1 -4.48 Q 283.97 -3.58 285.25 -3.46 L 285.25 -3.46 L 285.25 -3.46 Q 284.61 -1.28 282.27 0 L 282.27 0 L 282.27 0 Q 279.94 1.28 277.31 1.28 L 277.31 1.28 L 277.31 1.28 Q 274.69 1.28 272.93 0.29 L 272.93 0.29 L 272.93 0.29 Q 271.17 -0.7 270.66 -2.37 L 270.66 -2.37 L 270.66 -2.37 Q 269.63 -0.77 267.46 0.26 L 267.46 0.26 L 267.46 0.26 Q 265.28 1.28 262.37 1.28 L 262.37 1.28 L 262.37 1.28 Q 259.46 1.28 257.09 0.51 L 257.09 0.51 L 257.09 0.51 Q 254.72 -0.26 253.22 -1.92 Z M 266.72 -27.9 L 266.72 -27.9 L 266.72 -27.9 Q 265.98 -26.75 265.34 -24.8 L 265.34 -24.8 L 265.34 -24.8 Q 264.7 -22.85 263.65 -17.63 L 263.65 -17.63 L 263.65 -17.63 Q 262.59 -12.42 262.59 -8.7 L 262.59 -8.7 L 262.59 -8.7 Q 262.59 -4.99 263.17 -3.9 L 263.17 -3.9 L 263.17 -3.9 Q 263.74 -2.82 264.77 -2.82 L 264.77 -2.82 L 264.77 -2.82 Q 266.82 -2.82 268.32 -4.77 L 268.32 -4.77 L 268.32 -4.77 Q 269.82 -6.72 270.4 -10.18 L 270.4 -10.18 L 273.79 -28.93 L 273.79 -28.93 Q 272.45 -30.08 270.88 -30.08 L 270.88 -30.08 L 270.88 -30.08 Q 269.31 -30.08 268.38 -29.57 L 268.38 -29.57 L 268.38 -29.57 Q 267.46 -29.06 266.72 -27.9 Z M 305.92 -3.52 L 305.92 -3.52 L 305.92 -3.52 Q 303.94 1.28 297.6 1.28 L 297.6 1.28 L 297.6 1.28 Q 294.4 1.28 292.35 -0.96 L 292.35 -0.96 L 292.35 -0.96 Q 290.69 -2.82 290.69 -4.93 L 290.69 -4.93 L 290.69 -4.93 Q 290.69 -9.73 292.93 -20.22 L 292.93 -20.22 L 297.6 -44.8 L 310.59 -46.08 L 304.38 -13.7 L 304.38 -13.7 Q 303.3 -8.96 303.3 -7.3 L 303.3 -7.3 L 303.3 -7.3 Q 303.3 -3.65 305.92 -3.52 Z M 326.66 -3.52 L 326.66 -3.52 L 326.66 -3.52 Q 324.67 1.28 318.34 1.28 L 318.34 1.28 L 318.34 1.28 Q 315.14 1.28 313.09 -0.96 L 313.09 -0.96 L 313.09 -0.96 Q 311.42 -2.82 311.42 -4.93 L 311.42 -4.93 L 311.42 -4.93 Q 311.42 -9.73 313.66 -20.22 L 313.66 -20.22 L 318.34 -44.8 L 331.33 -46.08 L 325.12 -13.7 L 325.12 -13.7 Q 324.03 -8.96 324.03 -7.3 L 324.03 -7.3 L 324.03 -7.3 Q 324.03 -3.65 326.66 -3.52 Z M 358.02 -10.82 L 358.02 -10.82 L 358.02 -10.82 Q 359.62 -9.73 359.62 -7.33 L 359.62 -7.33 L 359.62 -7.33 Q 359.62 -4.93 358.4 -3.39 L 358.4 -3.39 L 358.4 -3.39 Q 357.18 -1.86 355.2 -0.83 L 355.2 -0.83 L 355.2 -0.83 Q 351.1 1.28 346.69 1.28 L 346.69 1.28 L 346.69 1.28 Q 342.27 1.28 339.68 0.32 L 339.68 0.32 L 339.68 0.32 Q 337.09 -0.64 335.36 -2.43 L 335.36 -2.43 L 335.36 -2.43 Q 331.97 -5.82 331.97 -12.03 L 331.97 -12.03 L 331.97 -12.03 Q 331.97 -21.7 337.22 -27.58 L 337.22 -27.58 L 337.22 -27.58 Q 342.85 -33.92 352.64 -33.92 L 352.64 -33.92 L 352.64 -33.92 Q 358.72 -33.92 361.73 -31.36 L 361.73 -31.36 L 361.73 -31.36 Q 363.97 -29.44 363.97 -26.3 L 363.97 -26.3 L 363.97 -26.3 Q 363.97 -15.04 344.51 -15.04 L 344.51 -15.04 L 344.51 -15.04 Q 344.26 -13.38 344.26 -11.97 L 344.26 -11.97 L 344.26 -11.97 Q 344.26 -9.02 345.57 -7.9 L 345.57 -7.9 L 345.57 -7.9 Q 346.88 -6.78 349.31 -6.78 L 349.31 -6.78 L 349.31 -6.78 Q 351.74 -6.78 354.34 -7.9 L 354.34 -7.9 L 354.34 -7.9 Q 356.93 -9.02 358.02 -10.82 Z M 344.96 -17.79 L 344.96 -17.79 L 344.96 -17.79 Q 349.5 -17.79 352.13 -20.61 L 352.13 -20.61 L 352.13 -20.61 Q 354.75 -23.3 354.75 -27.58 L 354.75 -27.58 L 354.75 -27.58 Q 354.75 -29.06 354.21 -29.86 L 354.21 -29.86 L 354.21 -29.86 Q 353.66 -30.66 352.58 -30.66 L 352.58 -30.66 L 352.58 -30.66 Q 351.49 -30.66 350.56 -30.24 L 350.56 -30.24 L 350.56 -30.24 Q 349.63 -29.82 348.67 -28.42 L 348.67 -28.42 L 348.67 -28.42 Q 346.3 -25.22 344.96 -17.79 Z M 386.18 -17.98 L 386.18 -17.98 L 386.18 -17.98 Q 388.48 -22.08 388.48 -26.24 L 388.48 -26.24 L 388.48 -26.24 Q 388.48 -28.99 386.5 -28.99 L 386.5 -28.99 L 386.5 -28.99 Q 384.96 -28.99 383.36 -26.37 L 383.36 -26.37 L 383.36 -26.37 Q 381.7 -23.74 381.18 -20.35 L 381.18 -20.35 L 377.86 0 L 364.61 1.28 L 371.14 -32.64 L 381.7 -33.92 L 380.54 -27.46 L 380.54 -27.46 Q 383.68 -33.92 390.72 -33.92 L 390.72 -33.92 L 390.72 -33.92 Q 394.43 -33.92 396.45 -32 L 396.45 -32 L 396.45 -32 Q 398.46 -30.08 398.46 -26.14 L 398.46 -26.14 L 398.46 -26.14 Q 398.46 -22.21 395.87 -19.71 L 395.87 -19.71 L 395.87 -19.71 Q 393.28 -17.22 388.86 -17.22 L 388.86 -17.22 L 388.86 -17.22 Q 386.94 -17.22 386.18 -17.98 Z M 419.84 -7.23 L 419.84 -7.23 L 419.84 -7.23 Q 416.51 -3.78 410.43 -3.78 L 410.43 -3.78 L 410.43 -3.78 Q 402.82 -3.78 401.22 -9.34 L 401.22 -9.34 L 401.22 -9.34 Q 400.7 -11.01 400.7 -12.86 L 400.7 -12.86 L 400.7 -12.86 Q 400.7 -14.72 401.09 -16.64 L 401.09 -16.64 L 404.1 -32.64 L 417.09 -33.92 L 413.57 -15.3 L 413.57 -15.3 Q 413.44 -14.46 413.25 -13.57 L 413.25 -13.57 L 413.25 -13.57 Q 413.06 -12.67 413.06 -11.74 L 413.06 -11.74 L 413.06 -11.74 Q 413.06 -10.82 413.38 -10.21 L 413.38 -10.21 L 413.38 -10.21 Q 413.7 -9.6 414.14 -9.22 L 414.14 -9.22 L 414.14 -9.22 Q 414.91 -8.7 416.29 -8.7 L 416.29 -8.7 L 416.29 -8.7 Q 417.66 -8.7 418.85 -10.37 L 418.85 -10.37 L 418.85 -10.37 Q 420.03 -12.03 420.61 -14.91 L 420.61 -14.91 L 424.13 -32.64 L 436.74 -33.92 L 431.94 -8.77 L 431.94 -8.77 Q 429.57 3.52 424.7 8.38 L 424.7 8.38 L 424.7 8.38 Q 422.21 10.88 418.98 11.87 L 418.98 11.87 L 418.98 11.87 Q 415.74 12.86 411.58 12.86 L 411.58 12.86 L 411.58 12.86 Q 404.86 12.86 401.02 10.75 L 401.02 10.75 L 401.02 10.75 Q 397.18 8.64 397.18 5.12 L 397.18 5.12 L 397.18 5.12 Q 397.18 2.5 399.17 0.99 L 399.17 0.99 L 399.17 0.99 Q 401.15 -0.51 404.22 -0.51 L 404.22 -0.51 L 404.22 -0.51 Q 406.91 -0.51 408.96 0.64 L 408.96 0.64 L 408.96 0.64 Q 410.18 1.34 410.75 2.24 L 410.75 2.24 L 410.75 2.24 Q 409.28 3.52 409.28 5.63 L 409.28 5.63 L 409.28 5.63 Q 409.28 8.45 411.84 8.45 L 411.84 8.45 L 411.84 8.45 Q 416.06 8.45 418.5 -1.28 L 418.5 -1.28 L 418.5 -1.28 Q 419.2 -4.16 419.84 -7.23 Z" stroke-linecap="round" />
</g>
</svg>